# xmcd
#
# Track frame offsets:
#	150
#	20348
#	44327
#	69900
#	93075
#	112200
#
# Disc length: 1817 seconds
#
# Revision: 0
# Processed by: cddbd v1.5.2PL0 Copyright (c) Steve Scherf et al.
# Submitted via: dBpowerAMP V4.0
#
DISCID=45071706
DTITLE=Favors and Friends - Sleep
DYEAR=1900
DGENRE=
TTITLE0=My Parents Were Airplanes
TTITLE1=After These Messages
TTITLE2=Sponsored By Sight
TTITLE3=Early Graves and Textbook Mistakes
TTITLE4=Time We'll Tell
TTITLE5=The Rat Who Runs This Place
EXTD=
EXTT0=
EXTT1=
EXTT2=
EXTT3=
EXTT4=
EXTT5=
PLAYORDER=
